<?xml version="1.0" encoding="UTF-8" standalone="no"?>
<svg
   xmlns:dc="http://purl.org/dc/elements/1.1/"
   xmlns:cc="http://creativecommons.org/ns#"
   xmlns:rdf="http://www.w3.org/1999/02/22-rdf-syntax-ns#"
   xmlns:svg="http://www.w3.org/2000/svg"
   xmlns="http://www.w3.org/2000/svg"
   xmlns:sodipodi="http://sodipodi.sourceforge.net/DTD/sodipodi-0.dtd"
   xmlns:inkscape="http://www.inkscape.org/namespaces/inkscape"
   style="fill-opacity:1; color-rendering:auto; color-interpolation:auto; text-rendering:auto; stroke:black; stroke-linecap:square; stroke-miterlimit:10; shape-rendering:auto; stroke-opacity:1; fill:black; stroke-dasharray:none; font-weight:normal; stroke-width:1; font-family:'Dialog'; font-style:normal; stroke-linejoin:miter; font-size:12; stroke-dashoffset:0; image-rendering:auto;"
   width="1006"
   height="546"
   id="svg2"
   sodipodi:version="0.32"
   inkscape:version="0.46"
   sodipodi:docname="BitListener.svg"
   inkscape:output_extension="org.inkscape.output.svg.inkscape">
  <metadata
     id="metadata421">
    <rdf:RDF>
      <cc:Work
         rdf:about="">
        <dc:format>image/svg+xml</dc:format>
        <dc:type
           rdf:resource="http://purl.org/dc/dcmitype/StillImage" />
      </cc:Work>
    </rdf:RDF>
  </metadata>
  <sodipodi:namedview
     inkscape:window-height="1121"
     inkscape:window-width="1920"
     inkscape:pageshadow="2"
     inkscape:pageopacity="0.0"
     guidetolerance="10.0"
     gridtolerance="10.0"
     objecttolerance="10.0"
     borderopacity="1.0"
     bordercolor="#666666"
     pagecolor="#ffffff"
     id="base"
     showgrid="false"
     showguides="true"
     inkscape:guide-bbox="true"
     inkscape:zoom="1.6446886"
     inkscape:cx="503"
     inkscape:cy="273"
     inkscape:window-x="0"
     inkscape:window-y="27"
     inkscape:current-layer="svg2" />
<!--Generated by the Batik Graphics2D SVG Generator-->  <defs
     id="genericDefs">
    <inkscape:perspective
       sodipodi:type="inkscape:persp3d"
       inkscape:vp_x="0 : 273 : 1"
       inkscape:vp_y="0 : 1000 : 0"
       inkscape:vp_z="1006 : 273 : 1"
       inkscape:persp3d-origin="503 : 182 : 1"
       id="perspective423" />
    <defs
       id="defs1">
      <clipPath
         id="clipPath1"
         clipPathUnits="userSpaceOnUse">
        <path
           id="path9"
           d="M-3 -3 L287 -3 L287 77 L-3 77 L-3 -3 Z" />
      </clipPath>
      <clipPath
         id="clipPath2"
         clipPathUnits="userSpaceOnUse">
        <path
           id="path12"
           d="M0 0 L0 35 L280 35 L280 0 Z" />
      </clipPath>
      <clipPath
         id="clipPath3"
         clipPathUnits="userSpaceOnUse">
        <path
           id="path15"
           d="M0 0 L280 0 L280 42 L0 42 L0 0 Z" />
      </clipPath>
      <clipPath
         id="clipPath4"
         clipPathUnits="userSpaceOnUse">
        <path
           id="path18"
           d="M-3 -3 L167 -3 L167 87 L-3 87 L-3 -3 Z" />
      </clipPath>
      <clipPath
         id="clipPath5"
         clipPathUnits="userSpaceOnUse">
        <path
           id="path21"
           d="M0 0 L0 45 L160 45 L160 0 Z" />
      </clipPath>
      <clipPath
         id="clipPath6"
         clipPathUnits="userSpaceOnUse">
        <path
           id="path24"
           d="M0 0 L160 0 L160 42 L0 42 L0 0 Z" />
      </clipPath>
      <clipPath
         id="clipPath7"
         clipPathUnits="userSpaceOnUse">
        <path
           id="path27"
           d="M-3 -3 L167 -3 L167 117 L-3 117 L-3 -3 Z" />
      </clipPath>
      <clipPath
         id="clipPath8"
         clipPathUnits="userSpaceOnUse">
        <path
           id="path30"
           d="M0 0 L0 89 L160 89 L160 0 Z" />
      </clipPath>
      <clipPath
         id="clipPath9"
         clipPathUnits="userSpaceOnUse">
        <path
           id="path33"
           d="M0 0 L160 0 L160 28 L0 28 L0 0 Z" />
      </clipPath>
      <clipPath
         id="clipPath10"
         clipPathUnits="userSpaceOnUse">
        <path
           id="path36"
           d="M0 0 L0 75 L160 75 L160 0 Z" />
      </clipPath>
      <clipPath
         id="clipPath11"
         clipPathUnits="userSpaceOnUse">
        <path
           id="path39"
           d="M-3 -3 L227 -3 L227 87 L-3 87 L-3 -3 Z" />
      </clipPath>
      <clipPath
         id="clipPath12"
         clipPathUnits="userSpaceOnUse">
        <path
           id="path42"
           d="M0 0 L0 45 L220 45 L220 0 Z" />
      </clipPath>
      <clipPath
         id="clipPath13"
         clipPathUnits="userSpaceOnUse">
        <path
           id="path45"
           d="M0 0 L220 0 L220 42 L0 42 L0 0 Z" />
      </clipPath>
      <clipPath
         id="clipPath14"
         clipPathUnits="userSpaceOnUse">
        <path
           id="path48"
           d="M-3 -3 L317 -3 L317 137 L-3 137 L-3 -3 Z" />
      </clipPath>
      <clipPath
         id="clipPath15"
         clipPathUnits="userSpaceOnUse">
        <path
           id="path51"
           d="M0 0 L0 109 L310 109 L310 0 Z" />
      </clipPath>
      <clipPath
         id="clipPath16"
         clipPathUnits="userSpaceOnUse">
        <path
           id="path54"
           d="M0 0 L310 0 L310 28 L0 28 L0 0 Z" />
      </clipPath>
      <clipPath
         id="clipPath17"
         clipPathUnits="userSpaceOnUse">
        <path
           id="path57"
           d="M-3 -3 L177 -3 L177 107 L-3 107 L-3 -3 Z" />
      </clipPath>
      <clipPath
         id="clipPath18"
         clipPathUnits="userSpaceOnUse">
        <path
           id="path60"
           d="M0 0 L0 79 L170 79 L170 0 Z" />
      </clipPath>
      <clipPath
         id="clipPath19"
         clipPathUnits="userSpaceOnUse">
        <path
           id="path63"
           d="M0 0 L170 0 L170 28 L0 28 L0 0 Z" />
      </clipPath>
      <clipPath
         id="clipPath20"
         clipPathUnits="userSpaceOnUse">
        <path
           id="path66"
           d="M-3 -3 L47 -3 L47 27 L-3 27 L-3 -3 Z" />
      </clipPath>
      <clipPath
         id="clipPath21"
         clipPathUnits="userSpaceOnUse">
        <path
           id="path69"
           d="M-3 -3 L407 -3 L407 77 L-3 77 L-3 -3 Z" />
      </clipPath>
      <clipPath
         id="clipPath22"
         clipPathUnits="userSpaceOnUse">
        <path
           id="path72"
           d="M0 0 L0 49 L400 49 L400 0 Z" />
      </clipPath>
      <clipPath
         id="clipPath23"
         clipPathUnits="userSpaceOnUse">
        <path
           id="path75"
           d="M0 0 L400 0 L400 28 L0 28 L0 0 Z" />
      </clipPath>
      <clipPath
         id="clipPath24"
         clipPathUnits="userSpaceOnUse">
        <path
           id="path78"
           d="M0 0 L104 0 L104 163 L0 163 L0 0 Z" />
      </clipPath>
      <clipPath
         id="clipPath25"
         clipPathUnits="userSpaceOnUse">
        <path
           id="path81"
           d="M0 0 L173 0 L173 104 L0 104 L0 0 Z" />
      </clipPath>
      <clipPath
         id="clipPath26"
         clipPathUnits="userSpaceOnUse">
        <path
           id="path84"
           d="M0 0 L104 0 L104 143 L0 143 L0 0 Z" />
      </clipPath>
      <clipPath
         id="clipPath27"
         clipPathUnits="userSpaceOnUse">
        <path
           id="path87"
           d="M0 0 L104 0 L104 283 L0 283 L0 0 Z" />
      </clipPath>
      <clipPath
         id="clipPath28"
         clipPathUnits="userSpaceOnUse">
        <path
           id="path90"
           d="M0 0 L123 0 L123 523 L0 523 L0 0 Z" />
      </clipPath>
      <clipPath
         id="clipPath29"
         clipPathUnits="userSpaceOnUse">
        <path
           id="path93"
           d="M0 0 L154 0 L154 523 L0 523 L0 0 Z" />
      </clipPath>
      <clipPath
         id="clipPath30"
         clipPathUnits="userSpaceOnUse">
        <path
           id="path96"
           d="M0 0 L104 0 L104 183 L0 183 L0 0 Z" />
      </clipPath>
      <clipPath
         id="clipPath31"
         clipPathUnits="userSpaceOnUse">
        <path
           id="path99"
           d="M0 0 L75 0 L75 14 L0 14 L0 0 Z" />
      </clipPath>
      <clipPath
         id="clipPath32"
         clipPathUnits="userSpaceOnUse">
        <path
           id="path102"
           d="M0 0 L40 0 L40 20 L0 20 L0 0 Z" />
      </clipPath>
    </defs>
  </defs>
  <g
     id="g104"
     style="fill:#ffffff;stroke:#ffffff">
    <rect
       id="rect106"
       height="546"
       style="stroke:none"
       width="1006"
       y="0"
       x="0" />
  </g>
  <g
     id="g108"
     style="font-size:11px;font-weight:bold;fill:#ffffff;stroke:#ffffff;font-family:sans-serif"
     transform="translate(722,162)">
    <rect
       id="rect110"
       height="70"
       style="stroke:none"
       width="280"
       y="0"
       x="0" />
  </g>
  <g
     id="g112"
     style="font-size:11px;font-weight:bold;stroke-linecap:butt;stroke-linejoin:round;stroke-miterlimit:0;font-family:sans-serif"
     transform="translate(722,162)">
    <rect
       id="rect114"
       height="70"
       style="fill:none"
       width="280"
       y="0"
       x="0" />
    <line
       id="line116"
       y2="42"
       style="fill:none"
       y1="42"
       x2="280"
       x1="0" />
  </g>
  <g
     id="g118"
     style="font-size:11px;font-style:italic;font-family:sans-serif"
     transform="matrix(0.9739021,0,0,1.0012955,722.08941,203.98709)">
    <text
       id="text120"
       xml:space="preserve"
       style="stroke:none"
       y="13"
       x="2">+updateBit(bit : Object, newValue : boolean) : void</text>
  </g>
  <g
     id="g122"
     style="font-size:11px;font-weight:bold;font-family:sans-serif"
     transform="translate(722,162)">
    <text
       id="text124"
       xml:space="preserve"
       style="stroke:none"
       y="11"
       x="96">&lt;&lt;Interface&gt;&gt;</text>
    <text
       id="text126"
       xml:space="preserve"
       style="stroke:none"
       y="25"
       x="109">BitListener</text>
    <text
       id="text128"
       xml:space="preserve"
       style="font-weight:normal;stroke:none"
       y="39"
       x="71">(nl::fontys::sevenlo::hwio)</text>
  </g>
  <g
     id="g130"
     style="font-size:11px;font-weight:bold;fill:#ffffff;stroke:#ffffff;font-family:sans-serif"
     transform="translate(272,2)">
    <rect
       id="rect132"
       height="80"
       style="stroke:none"
       width="160"
       y="0"
       x="0" />
  </g>
  <g
     id="g134"
     style="font-size:11px;font-weight:bold;stroke-linecap:butt;stroke-linejoin:round;stroke-miterlimit:0;font-family:sans-serif"
     transform="translate(272,2)">
    <rect
       id="rect136"
       height="80"
       style="fill:none"
       width="160"
       y="0"
       x="0" />
    <line
       id="line138"
       y2="42"
       style="fill:none"
       y1="42"
       x2="160"
       x1="0" />
  </g>
  <g
     id="g140"
     style="font-size:11px;font-style:italic;font-family:sans-serif"
     transform="translate(272,44)">
    <text
       id="text142"
       xml:space="preserve"
       style="stroke:none"
       y="13"
       x="2">+isSet() : boolean</text>
    <text
       id="text144"
       xml:space="preserve"
       style="stroke:none"
       y="27"
       x="2">+set(b : boolean) : void</text>
  </g>
  <g
     id="g146"
     style="font-size:11px;font-weight:bold;font-family:sans-serif"
     transform="translate(272,2)">
    <text
       id="text148"
       xml:space="preserve"
       style="stroke:none"
       y="11"
       x="36">&lt;&lt;Interface&gt;&gt;</text>
    <text
       id="text150"
       xml:space="preserve"
       style="stroke:none"
       y="25"
       x="60">BitOps</text>
    <text
       id="text152"
       xml:space="preserve"
       style="font-weight:normal;stroke:none"
       y="39"
       x="11">(nl::fontys::sevenlo::hwio)</text>
  </g>
  <g
     id="g154"
     style="font-size:11px;font-weight:bold;fill:#ffffff;stroke:#ffffff;font-family:sans-serif"
     transform="translate(372,312)">
    <rect
       id="rect156"
       height="110"
       style="stroke:none"
       width="160"
       y="0"
       x="0" />
  </g>
  <g
     id="g158"
     style="font-size:11px;font-weight:bold;stroke-linecap:butt;stroke-linejoin:round;stroke-miterlimit:0;font-family:sans-serif"
     transform="translate(372,312)">
    <rect
       id="rect160"
       height="110"
       style="fill:none"
       width="160"
       y="0"
       x="0" />
    <line
       id="line162"
       y2="28"
       style="fill:none"
       y1="28"
       x2="160"
       x1="0" />
  </g>
  <g
     id="g164"
     transform="translate(372,340)"
     style="font-size:11px;font-family:sans-serif">
    <text
       id="text166"
       xml:space="preserve"
       style="stroke:none"
       y="13"
       x="2">-value : boolean = false</text>
    <text
       id="text168"
       xml:space="preserve"
       style="stroke:none"
       y="27"
       x="2">+bitNr : int</text>
    <line
       id="line170"
       y2="32"
       style="fill:none;stroke-linecap:butt;stroke-linejoin:bevel;stroke-miterlimit:0"
       y1="32"
       x2="160"
       x1="0" />
    <text
       id="text172"
       xml:space="preserve"
       style="stroke:none"
       y="45"
       x="2">+InBit(bitNr : int)</text>
    <text
       id="text174"
       xml:space="preserve"
       style="stroke:none"
       y="59"
       x="2">+set(b : boolean) : void</text>
    <text
       id="text176"
       xml:space="preserve"
       style="stroke:none"
       y="73"
       x="2">+isSet() : boolean</text>
  </g>
  <g
     id="g178"
     style="font-size:11px;font-weight:bold;font-family:sans-serif"
     transform="translate(372,312)">
    <text
       id="text180"
       xml:space="preserve"
       style="stroke:none"
       y="11"
       x="66">InBit</text>
    <text
       id="text182"
       xml:space="preserve"
       style="font-weight:normal;stroke:none"
       y="25"
       x="11">(nl::fontys::sevenlo::hwio)</text>
  </g>
  <g
     id="g184"
     style="font-size:11px;font-weight:bold;fill:#ffffff;stroke:#ffffff;font-family:sans-serif"
     transform="translate(2,2)">
    <rect
       id="rect186"
       height="110"
       style="stroke:none"
       width="160"
       y="0"
       x="0" />
  </g>
  <g
     id="g188"
     style="font-size:11px;font-weight:bold;stroke-linecap:butt;stroke-linejoin:round;stroke-miterlimit:0;font-family:sans-serif"
     transform="translate(2,2)">
    <rect
       id="rect190"
       height="110"
       style="fill:none"
       width="160"
       y="0"
       x="0" />
    <line
       id="line192"
       y2="42"
       style="fill:none"
       y1="42"
       x2="160"
       x1="0" />
  </g>
  <g
     id="g194"
     style="font-size:11px;font-style:italic;font-family:sans-serif"
     transform="translate(2,44)">
    <text
       id="text196"
       xml:space="preserve"
       style="stroke:none"
       y="13"
       x="2">+getBit(i : int) : BitOps</text>
    <text
       id="text198"
       xml:space="preserve"
       style="stroke:none"
       y="27"
       x="2">+size() : int</text>
    <text
       id="text200"
       xml:space="preserve"
       style="stroke:none"
       y="41"
       x="2">+getInputMask() : int</text>
    <text
       id="text202"
       xml:space="preserve"
       style="stroke:none"
       y="55"
       x="2">+lastRead() : int</text>
  </g>
  <g
     id="g204"
     style="font-size:11px;font-weight:bold;font-family:sans-serif"
     transform="translate(2,2)">
    <text
       id="text206"
       xml:space="preserve"
       style="stroke:none"
       y="11"
       x="36">&lt;&lt;Interface&gt;&gt;</text>
    <text
       id="text208"
       xml:space="preserve"
       style="stroke:none"
       y="25"
       x="42">BitAggregate</text>
    <text
       id="text210"
       xml:space="preserve"
       style="font-weight:normal;stroke:none"
       y="39"
       x="11">(nl::fontys::sevenlo::hwio)</text>
  </g>
  <g
     id="g212"
     style="font-size:11px;font-weight:bold;fill:#ffffff;stroke:#ffffff;font-family:sans-serif"
     transform="translate(482,2)">
    <rect
       id="rect214"
       height="80"
       style="stroke:none"
       width="220"
       y="0"
       x="0" />
  </g>
  <g
     id="g216"
     style="font-size:11px;font-weight:bold;stroke-linecap:butt;stroke-linejoin:round;stroke-miterlimit:0;font-family:sans-serif"
     transform="translate(482,2)">
    <rect
       id="rect218"
       height="80"
       style="fill:none"
       width="220"
       y="0"
       x="0" />
    <line
       id="line220"
       y2="42"
       style="fill:none"
       y1="42"
       x2="220"
       x1="0" />
  </g>
  <g
     id="g222"
     style="font-size:11px;font-style:italic;font-family:sans-serif"
     transform="translate(482,44)">
    <text
       id="text224"
       xml:space="preserve"
       style="stroke:none"
       y="13"
       x="2">+addListener(bl : BitListener) : void</text>
    <text
       id="text226"
       xml:space="preserve"
       style="stroke:none"
       y="27"
       x="2">+removeListener(bl : BitListener) : void</text>
  </g>
  <g
     id="g228"
     style="font-size:11px;font-weight:bold;font-family:sans-serif"
     transform="translate(482,2)">
    <text
       id="text230"
       xml:space="preserve"
       style="stroke:none"
       y="11"
       x="66">&lt;&lt;Interface&gt;&gt;</text>
    <text
       id="text232"
       xml:space="preserve"
       style="stroke:none"
       y="25"
       x="80">BitSubject</text>
    <text
       id="text234"
       xml:space="preserve"
       style="font-weight:normal;stroke:none"
       y="39"
       x="41">(nl::fontys::sevenlo::hwio)</text>
  </g>
  <g
     id="g240"
     style="font-size:11px;font-weight:bold;stroke-linecap:butt;stroke-linejoin:round;stroke-miterlimit:0;font-family:sans-serif"
     transform="translate(342,142)">
    <rect
       id="rect242"
       height="130"
       style="fill:none"
       width="310"
       y="0"
       x="0" />
    <line
       id="line244"
       y2="28"
       style="fill:none"
       y1="28"
       x2="310"
       x1="0" />
  </g>
  <text
     x="351.80527"
     y="178.87933"
     style="font-size:10.75569534px;stroke:none;font-family:sans-serif"
     xml:space="preserve"
     id="text248"
     transform="scale(0.9775309,1.0229855)">-listeners : CopyOnWriteArrayList&lt;BitListener&gt;</text>
  <line
     x1="342.0079"
     x2="649.82654"
     y1="187.99229"
     style="font-size:11px;fill:none;stroke-width:0.99660778;stroke-linecap:butt;stroke-linejoin:bevel;stroke-miterlimit:0;font-family:sans-serif"
     y2="187.99229"
     id="line250" />
  <text
     x="351.80527"
     y="196.47955"
     style="font-size:10.75569534px;stroke:none;font-family:sans-serif"
     xml:space="preserve"
     id="text252"
     transform="scale(0.9775309,1.0229855)">+set() : void</text>
  <text
     x="351.80527"
     y="210.16862"
     style="font-size:10.75569534px;stroke:none;font-family:sans-serif"
     xml:space="preserve"
     id="text254"
     transform="scale(0.9775309,1.0229855)">+clear() : void</text>
  <text
     x="351.80527"
     y="223.8577"
     style="font-size:10.75569534px;stroke:none;font-family:sans-serif"
     xml:space="preserve"
     id="text256"
     transform="scale(0.9775309,1.0229855)">+addListener(bl : BitListener) : void</text>
  <text
     x="351.80527"
     y="237.54675"
     style="font-size:10.75569534px;stroke:none;font-family:sans-serif"
     xml:space="preserve"
     id="text258"
     transform="scale(0.9775309,1.0229855)">+removeListener(bl : BitListener) : void</text>
  <text
     x="351.80527"
     y="251.23582"
     style="font-size:10.75569534px;stroke:none;font-family:sans-serif"
     xml:space="preserve"
     id="text260"
     transform="scale(0.9775309,1.0229855)">#updateListeners(bo : Object, newValue : boolean) : void</text>
  <g
     id="g262"
     style="font-size:11px;font-style:italic;font-weight:bold;font-family:sans-serif"
     transform="translate(342,142)">
    <text
       id="text264"
       xml:space="preserve"
       style="stroke:none"
       y="11"
       x="147">Bit</text>
    <text
       id="text266"
       xml:space="preserve"
       style="font-style:normal;font-weight:normal;stroke:none"
       y="25"
       x="86">(nl::fontys::sevenlo::hwio)</text>
  </g>
  <g
     id="g268"
     style="font-size:11px;font-weight:bold;fill:#ffffff;stroke:#ffffff;font-family:sans-serif"
     transform="translate(2,292)">
    <rect
       id="rect270"
       height="100"
       style="stroke:none"
       width="170"
       y="0"
       x="0" />
  </g>
  <g
     id="g272"
     style="font-size:11px;font-weight:bold;stroke-linecap:butt;stroke-linejoin:round;stroke-miterlimit:0;font-family:sans-serif"
     transform="translate(2,292)">
    <rect
       id="rect274"
       height="100"
       style="fill:none"
       width="170"
       y="0"
       x="0" />
    <line
       id="line276"
       y2="28"
       style="fill:none"
       y1="28"
       x2="170"
       x1="0" />
  </g>
  <g
     id="g278"
     transform="translate(2,320)"
     style="font-size:11px;font-family:sans-serif">
    <text
       id="text280"
       xml:space="preserve"
       style="stroke:none"
       y="13"
       x="2">-lastValue : int = 0</text>
    <text
       id="text282"
       xml:space="preserve"
       style="stroke:none"
       y="27"
       x="2">-bitA : BitAggregate</text>
    <line
       id="line284"
       y2="32"
       style="fill:none;stroke-linecap:butt;stroke-linejoin:bevel;stroke-miterlimit:0"
       y1="32"
       x2="170"
       x1="0" />
    <text
       id="text286"
       xml:space="preserve"
       style="stroke:none"
       y="45"
       x="2">+SwingPoller(b : BitAggregate)</text>
    <text
       id="text288"
       xml:space="preserve"
       style="stroke:none"
       y="59"
       x="2">+pollOnce() : void</text>
  </g>
  <g
     id="g290"
     style="font-size:11px;font-weight:bold;font-family:sans-serif"
     transform="translate(2,292)">
    <text
       id="text292"
       xml:space="preserve"
       style="stroke:none"
       y="11"
       x="50">SwingPoller</text>
    <text
       id="text294"
       xml:space="preserve"
       style="font-weight:normal;stroke:none"
       y="25"
       x="16">(nl::fontys::sevenlo::hwio)</text>
  </g>
  <g
     id="g296"
     style="font-size:11px;font-weight:bold;fill:#ffffff;stroke:#ffffff;font-family:sans-serif"
     transform="translate(142,472)">
    <rect
       id="rect298"
       height="70"
       style="stroke:none"
       width="400"
       y="0"
       x="0" />
  </g>
  <g
     id="g300"
     style="font-size:11px;font-weight:bold;stroke-linecap:butt;stroke-linejoin:round;stroke-miterlimit:0;font-family:sans-serif"
     transform="translate(142,472)">
    <rect
       id="rect302"
       height="70"
       style="fill:none"
       width="400"
       y="0"
       x="0" />
    <line
       id="line304"
       y2="28"
       style="fill:none"
       y1="28"
       x2="400"
       x1="0" />
  </g>
  <text
     x="146.82953"
     y="503.07858"
     style="font-size:10.79579449px;stroke:none;font-family:sans-serif"
     xml:space="preserve"
     id="text308"
     transform="scale(0.9806659,1.0197152)">+updateBits(bitAg : BitAggregate, oldValue : long, newValue : long) : void</text>
  <line
     x1="155.54306"
     x2="527.05292"
     y1="514.39044"
     style="font-size:11px;fill:none;stroke-width:0.98143584;font-family:sans-serif"
     y2="514.39044"
     id="line310" />
  <text
     x="146.82953"
     y="516.81866"
     style="font-size:10.79579449px;stroke:none;font-family:sans-serif"
     xml:space="preserve"
     id="text312"
     transform="scale(0.9806659,1.0197152)">-BitUpdater()</text>
  <g
     id="g314"
     style="font-size:11px;font-weight:bold;font-family:sans-serif"
     transform="translate(142,472)">
    <text
       id="text316"
       xml:space="preserve"
       style="stroke:none"
       y="11"
       x="168">BitUpdater</text>
    <text
       id="text318"
       xml:space="preserve"
       style="font-weight:normal;stroke:none"
       y="25"
       x="131">(nl::fontys::sevenlo::hwio)</text>
  </g>
  <g
     id="g320"
     style="font-size:11px;stroke-linecap:butt;stroke-linejoin:round;stroke-dasharray:5;stroke-dashoffset:1;font-family:sans-serif"
     transform="translate(372,32)">
    <line
       id="line322"
       y2="109"
       style="fill:none"
       y1="50"
       x2="50"
       x1="50" />
  </g>
  <g
     id="g324"
     style="font-size:11px;fill:#ffffff;stroke:#ffffff;stroke-linecap:butt;stroke-linejoin:round;font-family:sans-serif"
     transform="translate(372,32)">
    <polygon
       id="polygon326"
       points="50,50 44,62 56,62 50,50 "
       style="stroke:none" />
    <polygon
       id="polygon328"
       points="50,50 44,62 56,62 50,50 "
       style="fill:none;stroke:#000000" />
  </g>
  <g
     id="g330"
     style="font-size:11px;stroke-linecap:butt;stroke-linejoin:round;font-family:sans-serif"
     transform="translate(602,142)">
    <line
       id="line332"
       y2="50"
       style="fill:none"
       y1="50"
       x2="119"
       x1="74" />
    <polygon
       id="polygon334"
       points="50,50 62,56 74,50 62,44 50,50 "
       style="fill:none" />
  </g>
  <g
     id="g336"
     style="font-size:11px;stroke-linecap:butt;stroke-linejoin:round;stroke-dasharray:5;stroke-dashoffset:1;font-family:sans-serif"
     transform="translate(512,32)">
    <line
       id="line338"
       y2="109"
       style="fill:none"
       y1="50"
       x2="50"
       x1="50" />
  </g>
  <g
     id="g340"
     style="font-size:11px;fill:#ffffff;stroke:#ffffff;stroke-linecap:butt;stroke-linejoin:round;font-family:sans-serif"
     transform="translate(512,32)">
    <polygon
       id="polygon342"
       points="50,50 44,62 56,62 50,50 "
       style="stroke:none" />
    <polygon
       id="polygon344"
       points="50,50 44,62 56,62 50,50 "
       style="fill:none;stroke:#000000" />
  </g>
  <g
     id="g346"
     style="font-size:11px;stroke-linecap:butt;stroke-linejoin:round;font-family:sans-serif"
     transform="translate(442,222)">
    <line
       id="line348"
       y2="89"
       style="fill:none"
       y1="50"
       x2="50"
       x1="50" />
    <polygon
       id="polygon350"
       points="50,50 44,62 56,62 50,50 "
       style="fill:#ffffff;stroke:none" />
    <polygon
       id="polygon352"
       points="50,50 44,62 56,62 50,50 "
       style="fill:none" />
  </g>
  <g
     id="g354"
     style="font-size:11px;stroke-linecap:butt;stroke-linejoin:round;font-family:sans-serif"
     transform="translate(12,62)">
    <line
       id="line356"
       y2="50"
       style="fill:none"
       y1="229"
       x2="50"
       x1="50" />
    <line
       id="line358"
       y2="215"
       style="fill:none"
       y1="224"
       x2="44"
       x1="56" />
    <line
       id="line360"
       y2="215"
       style="fill:none"
       y1="224"
       x2="56"
       x1="44" />
    <line
       id="line362"
       y2="62"
       style="fill:none"
       y1="50"
       x2="44"
       x1="50" />
    <line
       id="line364"
       y2="62"
       style="fill:none"
       y1="50"
       x2="56"
       x1="50" />
  </g>
  <g
     id="g366"
     style="font-size:11px;stroke-linecap:butt;stroke-linejoin:round;stroke-dasharray:5;stroke-dashoffset:1;font-family:sans-serif"
     transform="translate(202,2)">
    <line
       id="line368"
       y2="50"
       style="fill:none"
       y1="469"
       x2="50"
       x1="50" />
    <line
       id="line370"
       y2="50"
       style="fill:none"
       y1="50"
       x2="69"
       x1="50" />
    <line
       id="line372"
       y2="44"
       style="fill:none;stroke-dasharray:none;stroke-dashoffset:0"
       y1="50"
       x2="57"
       x1="69" />
    <line
       id="line374"
       y2="56"
       style="fill:none;stroke-dasharray:none;stroke-dashoffset:0"
       y1="50"
       x2="57"
       x1="69" />
  </g>
  <g
     id="g376"
     style="font-size:11px;stroke-linecap:butt;stroke-linejoin:round;stroke-dasharray:5;stroke-dashoffset:1;font-family:sans-serif"
     transform="translate(112,2)">
    <line
       id="line378"
       y2="50"
       style="fill:none"
       y1="469"
       x2="100"
       x1="100" />
    <line
       id="line380"
       y2="50"
       style="fill:none"
       y1="50"
       x2="50"
       x1="100" />
    <line
       id="line382"
       y2="56"
       style="fill:none;stroke-dasharray:none;stroke-dashoffset:0"
       y1="50"
       x2="62"
       x1="50" />
    <line
       id="line384"
       y2="44"
       style="fill:none;stroke-dasharray:none;stroke-dashoffset:0"
       y1="50"
       x2="62"
       x1="50" />
  </g>
  <g
     id="g386"
     style="font-size:11px;stroke-linecap:butt;stroke-linejoin:round;stroke-dasharray:5;stroke-dashoffset:1;font-family:sans-serif"
     transform="translate(112,342)">
    <line
       id="line388"
       y2="129"
       style="fill:none"
       y1="50"
       x2="50"
       x1="50" />
    <line
       id="line390"
       y2="117"
       style="fill:none;stroke-dasharray:none;stroke-dashoffset:0"
       y1="129"
       x2="56"
       x1="50" />
    <line
       id="line392"
       y2="117"
       style="fill:none;stroke-dasharray:none;stroke-dashoffset:0"
       y1="129"
       x2="44"
       x1="50" />
  </g>
  <g
     id="g394"
     transform="translate(62,427)"
     style="font-size:11px;font-family:sans-serif">
    <text
       id="text396"
       xml:space="preserve"
       style="stroke:none"
       y="11"
       x="9">&lt;&lt;use&gt;&gt;</text>
  </g>
  <g
     id="g398"
     transform="translate(172,262)"
     style="font-size:11px;font-family:sans-serif">
    <text
       id="text400"
       xml:space="preserve"
       style="stroke:none"
       y="11"
       x="9">&lt;&lt;use&gt;&gt;</text>
  </g>
  <g
     id="g402"
     transform="translate(222,242)"
     style="font-size:11px;font-family:sans-serif">
    <text
       id="text404"
       xml:space="preserve"
       style="stroke:none"
       y="11"
       x="9">&lt;&lt;use&gt;&gt;</text>
  </g>
  <g
     id="g406"
     transform="translate(62,112)"
     style="font-size:11px;font-family:sans-serif">
    <text
       id="text408"
       xml:space="preserve"
       style="stroke:none"
       y="14"
       x="16">1</text>
  </g>
  <g
     id="g410"
     transform="translate(22,112)"
     style="font-size:11px;font-family:sans-serif">
    <text
       id="text412"
       xml:space="preserve"
       style="stroke:none"
       y="14"
       x="9">bitA</text>
  </g>
</svg>
