<?xml version="1.0" encoding="UTF-8" standalone="no"?>
<!-- Created with Inkscape (http://www.inkscape.org/) -->
<svg
   xmlns:dc="http://purl.org/dc/elements/1.1/"
   xmlns:cc="http://creativecommons.org/ns#"
   xmlns:rdf="http://www.w3.org/1999/02/22-rdf-syntax-ns#"
   xmlns:svg="http://www.w3.org/2000/svg"
   xmlns="http://www.w3.org/2000/svg"
   xmlns:sodipodi="http://sodipodi.sourceforge.net/DTD/sodipodi-0.dtd"
   xmlns:inkscape="http://www.inkscape.org/namespaces/inkscape"
   width="2104.7244"
   height="2979.9211"
   id="svg2"
   sodipodi:version="0.32"
   inkscape:version="0.46"
   version="1.0"
   sodipodi:docbase="/susehome/hom/fthv/hi/fnd2/linuxlab/latexsample/figures"
   sodipodi:docname="fontys-page.svg"
   inkscape:output_extension="org.inkscape.output.svg.inkscape"
   sodipodi:modified="true">
  <defs
     id="defs4">
    <inkscape:perspective
       sodipodi:type="inkscape:persp3d"
       inkscape:vp_x="0 : 1489.9606 : 1"
       inkscape:vp_y="0 : 1000 : 0"
       inkscape:vp_z="2104.7244 : 1489.9606 : 1"
       inkscape:persp3d-origin="1052.3622 : 993.30705 : 1"
       id="perspective51" />
    <marker
       orient="auto"
       markerHeight="3"
       markerWidth="4"
       markerUnits="strokeWidth"
       refY="5"
       refX="10"
       viewBox="0 0 10 10"
       id="ArrowStart">
      <path
         id="path1333"
         d="M 10,0 L 0,5 L 10,10 L 10,0 z " />
    </marker>
    <marker
       orient="auto"
       markerHeight="3"
       markerWidth="4"
       markerUnits="strokeWidth"
       refY="5"
       refX="0"
       viewBox="0 0 10 10"
       id="ArrowEnd">
      <path
         id="path1330"
         d="M 0,0 L 10,5 L 0,10 L 0,0 z " />
    </marker>
    <marker
       orient="auto"
       markerHeight="3"
       markerWidth="4"
       markerUnits="strokeWidth"
       refY="5"
       refX="10"
       viewBox="0 0 10 10"
       id="marker2324">
      <path
         id="path2326"
         d="M 10,0 L 0,5 L 10,10 L 10,0 z " />
    </marker>
    <marker
       orient="auto"
       markerHeight="3"
       markerWidth="4"
       markerUnits="strokeWidth"
       refY="5"
       refX="0"
       viewBox="0 0 10 10"
       id="marker2320">
      <path
         id="path2322"
         d="M 0,0 L 10,5 L 0,10 L 0,0 z " />
    </marker>
  </defs>
  <sodipodi:namedview
     id="base"
     pagecolor="#ffffff"
     bordercolor="#666666"
     borderopacity="1.0"
     gridtolerance="10000"
     guidetolerance="10"
     objecttolerance="10"
     inkscape:pageopacity="0.0"
     inkscape:pageshadow="2"
     inkscape:zoom="0.30135026"
     inkscape:cx="1058.999"
     inkscape:cy="2790.7725"
     inkscape:document-units="mm"
     inkscape:current-layer="layer1"
     width="594.00001mm"
     height="841.00002mm"
     units="mm"
     showguides="true"
     inkscape:guide-bbox="true"
     gridanglex="8.4666669mm"
     gridanglez="8.4666669mm"
     grid_units="mm"
     showgrid="true"
     inkscape:window-width="1920"
     inkscape:window-height="1121"
     inkscape:window-x="0"
     inkscape:window-y="27"
     borderlayer="true"
     inkscape:object-paths="false"
     inkscape:grid-bbox="false"
     inkscape:snap-global="false">
    <sodipodi:guide
       orientation="horizontal"
       position="2979.9211"
       id="guide2242" />
    <sodipodi:guide
       orientation="horizontal"
       position="1934.8842,120.13987"
       id="guide2395" />
    <sodipodi:guide
       orientation="horizontal"
       position="2562.1015"
       id="guide2397" />
    <sodipodi:guide
       orientation="vertical"
       position="0"
       id="guide2481" />
    <sodipodi:guide
       orientation="vertical"
       position="2100.7621"
       id="guide2483" />
    <sodipodi:guide
       orientation="horizontal"
       position="2505.7679"
       id="guide2485" />
    <sodipodi:guide
       orientation="horizontal"
       position="0"
       id="guide35962" />
    <sodipodi:guide
       orientation="vertical"
       position="1585.5809"
       id="guide2250" />
    <inkscape:grid
       id="GridFromPre046Settings"
       type="xygrid"
       originx="0px"
       originy="0px"
       spacingx="5mm"
       spacingy="5mm"
       color="#0000ff"
       empcolor="#0000ff"
       opacity="0.2"
       empopacity="0.4"
       empspacing="5" />
  </sodipodi:namedview>
  <metadata
     id="metadata7">
    <rdf:RDF>
      <cc:Work
         rdf:about="">
        <dc:format>image/svg+xml</dc:format>
        <dc:type
           rdf:resource="http://purl.org/dc/dcmitype/StillImage" />
      </cc:Work>
    </rdf:RDF>
  </metadata>
  <g
     inkscape:label="Layer 1"
     inkscape:groupmode="layer"
     id="layer1">
    <path
       style="fill:#656464;fill-opacity:0.61081082;fill-rule:evenodd;stroke:none;stroke-width:7.08661413000000007;stroke-linecap:butt;stroke-linejoin:miter;stroke-miterlimit:4;stroke-dasharray:none;stroke-opacity:1"
       d="M -13.569649,498.58234 C -13.569649,498.58234 77.112651,458.92986 259.48663,407.17931 C 518.62167,333.64704 544.19889,346.05175 544.19889,346.05175 C 496.64258,382.00298 482.33393,391.00974 364.34415,494.12794 C 467.16408,457.78302 638.08904,424.07452 841.62202,388.78626 C 1043.5182,353.78173 1268.1725,351.80748 1268.1725,351.80748 C 1268.1725,351.80748 1489.0472,351.47699 1706.401,395.92027 C 1923.4183,440.29485 2137.3856,498.58234 2137.3856,498.58234 L 2137.3441,-126.9218 L -13.611149,-126.9218 L -13.569649,498.58234 z"
       id="path2426"
       sodipodi:nodetypes="csccsczcccc" />
    <path
       style="fill:#ffffff;fill-opacity:1;fill-rule:evenodd;stroke:#000000;stroke-width:7.08661413000000007;stroke-linecap:butt;stroke-linejoin:miter;stroke-miterlimit:4;stroke-dasharray:none;stroke-opacity:1"
       d="M -19.082714,476.50426 C -19.082714,476.50426 71.599587,436.85178 253.97354,385.10123 C 513.10858,311.56896 538.6858,323.97367 538.6858,323.97367 C 491.12949,359.9249 476.82084,368.93166 358.83106,472.04986 C 461.65099,435.70494 632.57595,401.99644 836.10893,366.70818 C 1038.0051,331.70365 1262.6594,329.7294 1262.6594,329.7294 C 1262.6594,329.7294 1483.5341,329.39891 1700.8879,373.84219 C 1917.9052,418.21677 2131.8726,476.50426 2131.8726,476.50426 L 2131.8311,-148.99988 L -19.124254,-148.99988 L -19.082714,476.50426 z"
       id="path2213"
       sodipodi:nodetypes="csccsczcccc" />
    <g
       id="g2447">
      <path
         id="path1351"
         d="M 1749.8114,2706.3293 L 1749.131,2712.9118 L 1755.8243,2712.9118 L 1752.268,2746.7068 L 1745.7487,2746.7068 L 1745.0683,2753.2894 L 1770.9832,2753.2894 L 1771.6596,2746.7068 L 1767.6128,2746.7068 L 1770.7023,2717.2396 C 1774.0569,2715.0915 1777.0871,2714.008 1779.5713,2714.008 C 1783.2345,2714.008 1784.6269,2716.1561 1784.1166,2721.1325 L 1781.4266,2746.7226 L 1777.7635,2746.7226 L 1777.0871,2753.3052 L 1802.7211,2753.3052 L 1803.4015,2746.7226 L 1796.9732,2746.7226 L 1799.7383,2720.2662 C 1800.7431,2710.657 1796.3838,2705.0476 1788.0567,2705.0476 C 1783.096,2705.0476 1777.2413,2707.3024 1771.2917,2711.5198 L 1771.8297,2706.3451 L 1749.8114,2706.3451"
         style="fill:#330033;fill-opacity:1;fill-rule:evenodd;stroke:none" />
      <path
         id="path1353"
         d="M 1938.6723,2724.2695 C 1931.6111,2719.6333 1930.8397,2718.7669 1931.1324,2715.9543 C 1931.35,2713.8063 1933.8976,2712.0772 1936.6192,2712.0772 C 1940.7135,2712.0772 1943.5578,2714.7672 1944.3767,2719.3089 L 1948.3602,2719.3089 L 1949.816,2705.4946 L 1945.0689,2705.4946 L 1944.8553,2707.6426 C 1942.3196,2706.1434 1939.1826,2705.2774 1935.5037,2705.2774 C 1925.7999,2705.2774 1918.1216,2711.4284 1917.2552,2719.7401 C 1916.8399,2723.7276 1918.2284,2727.8377 1921.2744,2730.7449 C 1922.5561,2731.8252 1924.4272,2733.5417 1927.224,2735.8124 C 1928.213,2736.6787 1929.202,2737.4188 1929.9892,2738.0676 C 1933.6207,2740.54 1934.4553,2741.7307 1934.222,2744.0014 C 1933.9925,2746.2598 1931.3935,2748.3133 1928.7075,2748.3133 C 1923.7468,2748.3133 1920.0362,2744.5433 1919.2332,2738.8267 L 1915.032,2738.8267 L 1913.4062,2754.3697 L 1917.457,2754.3697 L 1919.0473,2751.6833 C 1921.7689,2753.3966 1925.4162,2754.5715 1930.0643,2754.5715 C 1940.5276,2754.5715 1948.5778,2748.3445 1949.4283,2740.1242 C 1950.0612,2734.0801 1947.4504,2730.1875 1938.6881,2724.2537"
         style="fill:#330033;fill-opacity:1;fill-rule:evenodd;stroke:none" />
      <path
         id="path1355"
         d="M 1839.9299,2691.8789 L 1823.8137,2699.7626 L 1823.0582,2706.1908 L 1815.5618,2706.1908 L 1814.8498,2712.663 L 1814.557,2712.8806 L 1822.1444,2712.8806 L 1819.5968,2738.2061 C 1818.6355,2747.8975 1823.5368,2753.9385 1833.1179,2753.9385 C 1839.5739,2753.9385 1842.5725,2753.1351 1847.2087,2750.5998 C 1847.5331,2750.4139 1847.81,2750.1998 1848.0434,2749.9352 L 1846.9318,2744.4203 C 1842.0186,2747.3872 1839.9458,2746.8769 1837.1015,2745.0849 L 1837.1173,2745.0849 C 1835.3728,2743.8629 1835.08,2740.8047 1835.5745,2735.9354 L 1837.8927,2712.9277 L 1850.4407,2712.9277 L 1851.1013,2706.3768 L 1838.5573,2706.3768 L 1839.9299,2691.9264"
         style="fill:#330033;fill-opacity:1;fill-rule:evenodd;stroke:none" />
      <path
         id="path1357"
         d="M 1893.073,2712.9118 L 1898.3423,2712.9118 L 1885.6083,2735.8915 L 1879.6271,2712.9118 L 1884.9754,2712.9118 L 1885.6558,2706.3293 L 1859.1554,2706.3293 L 1858.475,2712.9118 L 1864.7332,2712.9118 L 1875.0224,2751.5571 L 1858.566,2779.7585 L 1872.0555,2779.7585 L 1904.6914,2712.9118 L 1910.1782,2712.9118 L 1910.8586,2706.3293 L 1893.7534,2706.3293 L 1893.073,2712.9118"
         style="fill:#330033;fill-opacity:1;fill-rule:evenodd;stroke:none" />
      <path
         id="path1359"
         d="M 1646.9589,2654.2701 C 1646.9589,2654.2701 1675.9474,2645.8797 1699.4809,2646.481 C 1724.2367,2647.0985 1747.6159,2655.3346 1752.3471,2656.7267 C 1755.6225,2657.684 1759.3608,2657.1741 1760.2588,2654.0213 C 1760.69,2652.4623 1760.9353,2648.815 1754.8353,2643.4354 C 1737.295,2628.0467 1716.3408,2622.6671 1716.3408,2622.6671 C 1684.5871,2589.584 1656.9395,2585.1336 1656.9395,2585.1336 C 1666.2437,2595.0708 1670.7573,2621.4641 1667.4661,2622.5757 C 1614.9559,2638.6606 1599.9038,2670.5564 1599.9038,2670.5564 C 1603.7529,2667.3565 1620.1183,2652.2293 1657.0661,2645.9711 C 1651.8246,2650.2197 1646.9589,2654.2982 1646.9589,2654.2982"
         style="fill:#330033;fill-opacity:1;fill-rule:evenodd;stroke:none" />
      <path
         id="path1361"
         d="M 1684.9273,2590.6956 C 1701.5854,2599.0266 1716.1074,2619.502 1716.1074,2619.502 C 1711.9696,2599.3352 1683.9066,2561.3985 1684.3378,2564.4128 C 1686.2999,2577.9814 1684.9273,2590.6956 1684.9273,2590.6956"
         style="fill:#330033;fill-opacity:1;fill-rule:evenodd;stroke:none" />
      <path
         id="path1363"
         d="M 1637.4094,2688.6509 L 1636.7132,2695.6682 L 1643.4065,2695.6682 L 1641.0884,2718.8931 L 1641.1793,2719.079 L 1640.9618,2718.9845 C 1632.4962,2718.2724 1624.7388,2716.575 1617.6301,2713.9166 C 1609.117,2710.5937 1599.7219,2704.9372 1597.3088,2696.6695 C 1594.2826,2685.0982 1602.0084,2676.1658 1607.4912,2671.8856 L 1607.3369,2681.8824 C 1610.2761,2672.333 1617.6301,2663.5707 1617.6301,2663.5707 C 1599.3658,2673.6305 1593.7722,2683.4288 1591.6835,2690.49 C 1590.833,2693.6587 1590.9755,2696.1908 1591.284,2698.9595 C 1592.4431,2705.3561 1596.304,2709.9295 1600.9245,2713.7465 C 1611.4629,2722.1528 1624.9247,2726.4172 1639.9886,2728.4109 L 1640.222,2728.348 L 1640.1271,2728.534 L 1638.3509,2746.3512 L 1631.891,2746.3512 L 1631.1987,2753.3649 L 1660.6026,2753.3649 L 1661.2989,2746.3512 L 1654.6847,2746.3512 L 1656.354,2729.4596 L 1656.2472,2729.2298 L 1656.5083,2729.337 C 1662.3353,2729.3999 1670.971,2729.2298 1670.971,2729.2298 L 1672.3634,2713.8537 L 1668.4234,2713.8537 L 1666.5681,2719.1859 C 1663.1225,2719.5102 1658.4704,2719.4473 1657.5131,2719.4315 L 1657.2362,2719.5577 L 1657.4063,2719.2772 L 1657.5764,2717.3938 L 1659.7363,2695.6682 L 1676.707,2695.6682 L 1675.8565,2704.1971 L 1683.0878,2704.1971 L 1684.6464,2688.6351 L 1637.4252,2688.6351"
         style="fill:#330033;fill-opacity:1;fill-rule:evenodd;stroke:none" />
      <path
         id="path1365"
         d="M 1714.1176,2705.0318 C 1729.771,2705.0318 1739.7041,2715.2897 1738.189,2729.7559 C 1737.4968,2736.4457 1734.3914,2742.2723 1729.0589,2746.9244 C 1723.3545,2751.8815 1717.1913,2754.0453 1708.7693,2754.0453 C 1693.2227,2754.0453 1682.977,2743.6928 1684.4486,2729.6456 C 1685.9439,2715.2897 1698.2625,2705.0318 1714.1295,2705.0318 L 1714.1176,2705.0318 z M 1701.6606,2729.9699 C 1700.363,2742.3795 1702.9423,2748.5463 1709.2004,2748.5463 C 1715.783,2748.5463 1719.6637,2742.5021 1720.9771,2729.9699 C 1722.2588,2717.6712 1719.6004,2711.2899 1713.3422,2711.2899 C 1706.6529,2711.2899 1703.0214,2717.1134 1701.6606,2729.9699"
         style="fill:#330033;fill-opacity:1;fill-rule:evenodd;stroke:none" />
      <g
         transform="translate(43.413773,-50.886947)"
         id="g2296"
         style="fill:#330033;fill-opacity:1">
        <path
           style="fill:#330033;fill-opacity:1;fill-rule:evenodd;stroke:none"
           d="M 1600.6965,2863.5898 L 1593.4969,2863.5898 L 1593.4969,2854.847 L 1587.4088,2854.847 L 1587.4088,2877.7158 L 1593.4969,2877.7158 L 1593.4969,2867.9175 L 1600.6965,2867.9175 L 1600.6965,2877.7158 L 1606.7846,2877.7158 L 1606.7846,2854.847 L 1600.6965,2854.847 L 1600.6965,2863.5898"
           id="path1339" />
        <path
           style="fill:#330033;fill-opacity:1;fill-rule:evenodd;stroke:none"
           d="M 1679.2126,2865.3537 C 1679.2126,2864.4087 1680.6485,2864.1788 1681.9302,2864.1788 C 1683.3979,2864.1788 1685.269,2864.5665 1686.5072,2865.3221 L 1686.9542,2861.2436 C 1685.0514,2860.5003 1682.9983,2860.2704 1680.9571,2860.2704 C 1677.559,2860.2704 1673.6941,2861.8607 1673.6941,2865.8011 C 1673.6941,2871.9679 1682.0687,2869.9271 1682.0687,2872.8026 C 1682.0687,2873.974 1680.8978,2874.1757 1679.6912,2874.1757 C 1677.5748,2874.1757 1675.5336,2873.6057 1674.157,2873.0008 L 1673.8326,2877.2811 C 1675.5653,2877.8388 1677.3731,2878.0877 1680.0156,2878.0877 C 1683.8805,2878.0877 1687.9748,2876.9567 1687.9748,2872.3995 C 1687.9748,2865.9079 1679.1967,2868.0279 1679.1967,2865.3696"
           id="path1341" />
        <path
           style="fill:#330033;fill-opacity:1;fill-rule:evenodd;stroke:none"
           d="M 1700.9857,2873.7758 C 1698.4341,2873.7758 1696.1476,2872.0118 1696.1476,2869.2938 C 1696.1476,2866.3585 1698.1097,2864.5788 1700.6613,2864.5788 C 1702.0656,2864.5788 1703.1495,2864.8751 1704.2295,2865.5238 L 1704.6488,2861.1965 C 1703.3196,2860.5474 1701.7412,2860.2546 1699.965,2860.2546 C 1694.3398,2860.2546 1690.0437,2863.5301 1690.0437,2869.1992 C 1690.0437,2874.8245 1694.324,2878.0999 1699.965,2878.0999 C 1701.5236,2878.0999 1703.3038,2877.8543 1704.7714,2877.3598 L 1704.6488,2872.9727 C 1703.6717,2873.4953 1702.3306,2873.7758 1700.9857,2873.7758"
           id="path1343" />
        <path
           style="fill:#330033;fill-opacity:1;fill-rule:evenodd;stroke:none"
           d="M 1718.9097,2860.2388 C 1716.3581,2860.2388 1714.491,2861.382 1713.2093,2863.1428 L 1713.146,2863.1428 L 1713.146,2853.1301 L 1707.2597,2853.1301 L 1707.2597,2877.7 L 1713.146,2877.7 L 1713.146,2870.5003 C 1713.146,2866.8372 1714.3802,2865.1678 1716.8091,2865.1678 C 1718.3994,2865.1678 1719.5268,2866.2323 1719.5268,2869.4481 L 1719.5268,2877.7 L 1725.4171,2877.7 L 1725.4171,2867.0512 C 1725.4171,2863.5143 1723.546,2860.2388 1718.8939,2860.2388"
           id="path1345" />
        <path
           style="fill:#330033;fill-opacity:1;fill-rule:evenodd;stroke:none"
           d="M 1751.6366,2877.7158 L 1757.5268,2877.7158 L 1757.5268,2853.1459 L 1751.6366,2853.1459 L 1751.6366,2877.7158 z"
           id="path1347" />
        <path
           style="fill:#330033;fill-opacity:1;fill-rule:evenodd;stroke:none"
           d="M 1793.5608,2860.2388 C 1790.8708,2860.2388 1788.525,2861.3033 1787.3501,2863.7757 L 1787.2868,2863.7757 L 1787.2868,2860.6387 L 1781.9266,2860.6387 L 1781.9266,2877.7158 L 1787.8129,2877.7158 L 1787.8129,2870.5126 C 1787.8129,2866.853 1789.0472,2865.1836 1791.4761,2865.1836 C 1793.0663,2865.1836 1794.1938,2866.2482 1794.1938,2869.4639 L 1794.1938,2877.7158 L 1800.084,2877.7158 L 1800.084,2867.067 C 1800.084,2863.5301 1798.2129,2860.2546 1793.5766,2860.2546"
           id="path1349" />
        <path
           style="fill:#330033;fill-opacity:1;fill-rule:evenodd;stroke:none"
           d="M 1645.3543,2860.6387 L 1645.3543,2863.716 L 1645.295,2863.716 C 1644.0568,2861.6277 1642.0195,2860.2546 1639.4996,2860.2546 C 1634.1988,2860.2546 1631.8015,2864.0562 1631.8015,2869.1237 C 1631.8015,2874.1599 1634.7091,2877.7 1639.4047,2877.7 C 1641.7545,2877.7 1643.7324,2876.7866 1645.1407,2874.7964 L 1645.2,2874.7964 L 1645.2,2875.7062 C 1645.2,2879.045 1643.3764,2880.6511 1639.9625,2880.6511 C 1637.5059,2880.6511 1636.0066,2880.1253 1634.1988,2879.2432 L 1633.906,2883.8953 C 1635.2787,2884.3898 1637.5969,2884.963 1640.4253,2884.963 C 1647.3006,2884.963 1650.7185,2882.7081 1650.7185,2875.6908 L 1650.7185,2860.6229 L 1645.386,2860.6229 L 1645.3543,2860.6387 z M 1641.2283,2873.1867 C 1639.468,2873.1867 1637.8936,2871.6875 1637.8936,2869.0291 C 1637.8936,2866.7145 1639.0368,2864.7805 1641.2283,2864.7805 C 1643.8709,2864.7805 1644.9864,2866.8969 1644.9864,2868.7993 C 1644.9864,2871.4106 1643.317,2873.1867 1641.2283,2873.1867"
           id="path1367" />
        <path
           style="fill:#330033;fill-opacity:1;fill-rule:evenodd;stroke:none"
           d="M 1671.4235,2869.8199 C 1671.4235,2864.7489 1669.137,2860.2546 1662.8155,2860.2546 C 1657.5146,2860.2546 1653.6854,2863.5301 1653.6854,2869.1553 C 1653.6854,2874.7964 1657.9656,2878.0999 1663.6067,2878.0999 C 1665.7982,2878.0999 1667.9621,2877.7914 1669.8649,2877.02 L 1669.8649,2872.8624 C 1668.1005,2873.8074 1666.2611,2874.1599 1664.655,2874.1599 C 1661.783,2874.1599 1659.9752,2873.2496 1659.6508,2870.9003 L 1671.4393,2870.9003 L 1671.4393,2869.8357 L 1671.4235,2869.8199 z M 1659.5559,2867.5457 C 1659.6785,2865.5994 1660.6991,2863.9933 1662.8313,2863.9933 C 1665.1811,2863.9933 1666.091,2865.5836 1666.091,2867.5457 L 1659.54,2867.5457"
           id="path1369" />
        <path
           style="fill:#330033;fill-opacity:1;fill-rule:evenodd;stroke:none"
           d="M 1738.1945,2860.2388 C 1732.5693,2860.2388 1728.2732,2863.5143 1728.2732,2869.187 C 1728.2732,2874.8086 1732.5535,2878.0877 1738.1945,2878.0877 C 1743.8198,2878.0877 1748.1158,2874.8245 1748.1158,2869.187 C 1748.1158,2863.5301 1743.8356,2860.2388 1738.1945,2860.2388 z M 1738.1945,2873.974 C 1735.4729,2873.974 1734.3613,2871.7191 1734.3613,2869.1992 C 1734.3613,2866.6513 1735.4729,2864.3964 1738.1945,2864.3964 C 1740.9162,2864.3964 1742.0278,2866.6513 1742.0278,2869.1992 C 1742.0278,2871.7191 1740.928,2873.974 1738.1945,2873.974"
           id="path1371" />
        <path
           style="fill:#330033;fill-opacity:1;fill-rule:evenodd;stroke:none"
           d="M 1778.8331,2869.8199 C 1778.8331,2864.7489 1776.5466,2860.2546 1770.2291,2860.2546 C 1764.9283,2860.2546 1761.095,2863.5301 1761.095,2869.1553 C 1761.095,2874.7964 1765.3753,2878.0999 1771.0163,2878.0999 C 1773.2118,2878.0999 1775.3717,2877.7914 1777.2587,2877.02 L 1777.2587,2872.8624 C 1775.4983,2873.8074 1773.6589,2874.1599 1772.0528,2874.1599 C 1769.1769,2874.1599 1767.369,2873.2496 1767.0447,2870.9003 L 1778.8331,2870.9003 L 1778.8331,2869.8357 L 1778.8331,2869.8199 z M 1766.9655,2867.5457 C 1767.0921,2865.5994 1768.1088,2863.9933 1770.2449,2863.9933 C 1772.5908,2863.9933 1773.5046,2865.5836 1773.5046,2867.5457 L 1766.9537,2867.5457"
           id="path1373" />
        <path
           style="fill:#330033;fill-opacity:1;fill-rule:evenodd;stroke:none"
           d="M 1619.8429,2860.2388 C 1614.2177,2860.2388 1609.9216,2863.5143 1609.9216,2869.187 C 1609.9216,2874.8086 1614.2019,2878.0877 1619.8429,2878.0877 C 1625.4682,2878.0877 1629.7642,2874.8245 1629.7642,2869.187 C 1629.7642,2863.5301 1625.484,2860.2388 1619.8429,2860.2388 z M 1619.8429,2873.974 C 1617.1371,2873.974 1616.0097,2871.7191 1616.0097,2869.1992 C 1616.0097,2866.6513 1617.1253,2864.3964 1619.8429,2864.3964 C 1622.5646,2864.3964 1623.6762,2866.6513 1623.6762,2869.1992 C 1623.6762,2871.7191 1622.5764,2873.974 1619.8429,2873.974"
           id="path1375" />
      </g>
      <text
         sodipodi:linespacing="100%"
         id="text32977"
         y="2868.9089"
         x="1630.7054"
         style="font-size:24px;font-style:normal;font-variant:normal;font-weight:bold;font-stretch:normal;text-align:start;line-height:100%;writing-mode:lr-tb;text-anchor:start;fill:#330033;fill-opacity:1;stroke:none;stroke-width:1px;stroke-linecap:butt;stroke-linejoin:miter;stroke-opacity:1;font-family:Bitstream Vera Sans"
         xml:space="preserve"><tspan
           y="2868.9089"
           x="1630.7054"
           id="tspan32979"
           sodipodi:role="line">Fontys Hogeschool voor </tspan><tspan
           id="tspan33974"
           y="2892.9089"
           x="1630.7054"
           sodipodi:role="line">Techniek en Logistiek</tspan></text>
    </g>
  </g>
</svg>
